mtllib boss_shp_debrisE_SD.mtl

v 7.485352 4.487305 2.448730
v 7.206543 3.495117 -9.545898
v 6.610840 6.497559 1.083008
v 7.547852 -2.585938 -7.055664
v 7.781250 0.657227 7.025391
v 4.681641 -5.061035 -3.369141
v 5.355469 -2.405762 8.187500
v -0.372070 -6.785645 -1.254883
v -4.040527 -3.186035 9.690430
v -4.929688 -5.438477 -2.107910
v -5.580566 -4.034180 -0.035156
v 6.630371 1.313477 6.928711
v 7.485352 4.487305 2.448730
v 5.846191 4.436523 2.438477
v 7.781250 0.657227 7.025391
v 5.355469 -2.405762 8.187500
v -3.331543 -1.776367 9.245117
v -4.440918 -2.895508 -0.341309
v -3.487793 -1.236816 9.125488
v -3.443359 -3.987305 -1.577148
v -0.227051 -5.195801 -0.507324
v 4.797852 -1.697754 7.842773
v 3.836426 -3.796387 -2.630859
v 6.630371 1.313477 6.928711
v -7.665039 -2.037598 3.042969
v -8.173340 -2.220703 1.023438
v -4.738281 -2.252930 9.428223
v -3.443359 -3.987305 -1.577148
v -0.372070 -6.785645 -1.254883
v -4.929688 -5.438477 -2.107910
v -0.227051 -5.195801 -0.507324
v 4.974609 7.274414 1.016602
v 6.610840 6.497559 1.083008
v 5.570313 3.566406 -9.625488
v 6.610840 6.497559 1.083008
v 7.206543 3.495117 -9.545898
v 4.974609 7.274414 1.016602
v -7.346191 -0.844238 0.690918
v -5.580566 -4.034180 -0.035156
v -8.173340 -2.220703 1.023438
v -4.440918 -2.895508 -0.341309
v -8.173340 -2.220703 1.023438
v -6.838379 -0.661133 2.710449
v -7.346191 -0.844238 0.690918
v -7.665039 -2.037598 3.042969
v -3.487793 -1.236816 9.125488
v -4.738281 -2.252930 9.428223
v -4.929688 -5.438477 -2.107910
v -3.443359 -3.987305 -1.577148
v -3.331543 -1.776367 9.245117
v -4.040527 -3.186035 9.690430
v 4.797852 -1.697754 7.842773
v 4.681641 -5.061035 -3.369141
v 3.836426 -3.796387 -2.630859
v 3.836426 -3.796387 -2.630859
v 7.547852 -2.585938 -7.055664
v 4.681641 -5.061035 -3.369141
v 5.974121 -2.141113 -5.912598
v 5.570313 3.566406 -9.625488
v 7.206543 3.495117 -9.545898
v 5.570313 3.566406 -9.625488
v 5.846191 4.436523 2.438477
v 4.974609 7.274414 1.016602
v 5.974121 -2.141113 -5.912598
v -6.838379 -0.661133 2.710449
v -7.346191 -0.844238 0.690918

vt 0.828644 0.734772
vt 0.815094 0.636688
vt 0.815094 0.745178
vt 0.859192 0.643799
vt 0.859192 0.763397
vt 0.885986 0.674835
vt 0.885986 0.763397
vt 0.923218 0.688873
vt 0.956726 0.763397
vt 0.956726 0.685638
vt 0.962219 0.700348
vt 0.887634 0.834595
vt 0.875427 0.848083
vt 0.875427 0.834595
vt 0.887634 0.848083
vt 0.893982 0.848083
vt 0.913849 0.714386
vt 0.926727 0.651245
vt 0.918823 0.715088
vt 0.922089 0.636017
vt 0.887878 0.640442
vt 0.842712 0.702789
vt 0.850342 0.625397
vt 0.820251 0.699036
vt 0.980042 0.721985
vt 0.982513 0.708710
vt 0.962219 0.763397
vt 0.948914 0.834595
vt 0.958496 0.848083
vt 0.949371 0.848083
vt 0.958038 0.834595
vt 0.869995 0.834595
vt 0.869995 0.848083
vt 0.846191 0.834595
vt 0.869995 0.848083
vt 0.846222 0.848083
vt 0.869995 0.834595
vt 0.935791 0.834595
vt 0.943634 0.848083
vt 0.935791 0.848083
vt 0.943634 0.834595
vt 0.935791 0.848083
vt 0.931244 0.834595
vt 0.935791 0.834595
vt 0.931244 0.848083
vt 0.915314 0.834595
vt 0.915314 0.848083
vt 0.949371 0.848083
vt 0.948914 0.834595
vt 0.912384 0.834595
vt 0.912384 0.848083
vt 0.893982 0.834595
vt 0.968781 0.848083
vt 0.968384 0.834595
vt 0.823486 0.834595
vt 0.832275 0.848083
vt 0.823517 0.848083
vt 0.832245 0.834595
vt 0.846191 0.834595
vt 0.846222 0.848083
vt 0.775665 0.590759
vt 0.785675 0.671600
vt 0.765930 0.663696
vt 0.830353 0.602631
vt 0.953003 0.674896
vt 0.957855 0.661560

vn 0.988314 0.148311 -0.035216
vn 0.995355 0.091247 -0.030700
vn 0.928178 0.368476 -0.052064
vn 0.974610 -0.221191 0.034790
vn 0.914629 -0.399971 0.058961
vn 0.627502 -0.762938 0.155456
vn 0.521978 -0.824899 0.216982
vn 0.059023 -0.968476 0.242012
vn -0.437197 -0.854679 0.279969
vn -0.451117 -0.869763 0.200015
vn -0.695191 -0.694154 0.186707
vn 0.211920 0.582047 0.785055
vn 0.040101 0.690927 0.721811
vn -0.024597 0.628362 0.777533
vn 0.220461 0.509526 0.831733
vn 0.008667 0.416494 0.909097
vn 0.620304 0.734197 -0.276003
vn 0.599742 0.780592 -0.176028
vn 0.906249 0.391357 -0.159851
vn 0.486203 0.855159 -0.179748
vn -0.005310 0.975105 -0.221681
vn -0.548595 0.815446 -0.184635
vn -0.637717 0.758204 -0.135808
vn -0.945688 0.325076 -0.000183
vn -0.504287 -0.839379 0.202825
vn -0.504287 -0.839379 0.202825
vn -0.762862 -0.619677 0.184505
vn 0.261898 0.178342 -0.948474
vn -0.046141 0.383777 -0.922272
vn 0.219241 0.129396 -0.967052
vn -0.041137 0.406972 -0.912514
vn 0.139283 0.548955 0.824165
vn 0.263246 0.617862 0.740910
vn 0.092225 0.958082 -0.271244
vn 0.391855 0.876975 -0.278144
vn 0.054750 0.961689 -0.268621
vn 0.421202 0.863522 -0.277343
vn -0.356079 0.015503 -0.934327
vn -0.514589 0.279481 -0.810610
vn -0.376582 0.002380 -0.926380
vn -0.441576 0.344167 -0.828589
vn -0.828612 0.536498 0.159912
vn -0.785463 0.543458 0.296143
vn -0.828612 0.536498 0.159912
vn -0.775580 0.561833 0.287783
vn -0.360829 0.606305 0.708658
vn -0.315063 0.618652 0.719726
vn -0.474175 0.562003 -0.677724
vn -0.298769 0.582585 -0.755865
vn 0.098204 0.236506 0.966655
vn 0.090332 0.269775 0.958677
vn -0.006958 0.421632 0.906740
vn -0.663080 0.022095 -0.748223
vn -0.604433 0.028504 -0.796146
vn -0.604433 0.028504 -0.796146
vn -0.573613 -0.432132 -0.695867
vn -0.663080 0.022095 -0.748223
vn -0.600567 -0.478318 -0.640727
vn -0.095883 -0.409775 -0.907133
vn 0.028747 -0.377438 -0.925589
vn -0.994656 -0.098819 0.029908
vn -0.984679 -0.163208 0.061401
vn -0.960773 -0.274175 0.041749
vn -0.983078 0.182004 -0.020813
vn 0.519356 0.830762 -0.200259
vn 0.514942 0.832379 -0.204890

g polygon0
s 1
usemtl mat1
f 1/1/1 2/2/2 3/3/3
f 1/1/1 4/4/4 2/2/2
f 5/5/5 4/4/4 1/1/1
f 5/5/5 6/6/6 4/4/4
f 7/7/7 6/6/6 5/5/5
f 7/7/7 8/8/8 6/6/6
f 9/9/9 8/8/8 7/7/7
f 9/9/9 10/10/10 8/8/8
f 11/11/11 10/10/10 9/9/9
f 12/12/12 13/13/13 14/14/14
f 12/12/12 15/15/15 13/13/13
f 16/16/16 15/15/15 12/12/12
f 17/17/17 18/18/18 19/19/19
f 17/17/17 20/20/20 18/18/18
f 21/21/21 20/20/20 17/17/17
f 22/22/22 21/21/21 17/17/17
f 22/22/22 23/23/23 21/21/21
f 24/24/24 23/23/23 22/22/22
f 11/11/11 25/25/25 26/26/26
f 11/11/11 27/27/27 25/25/25
f 9/9/9 27/27/27 11/11/11
f 28/28/28 29/29/29 30/30/30
f 28/28/28 31/31/31 29/29/29
f 32/32/32 13/13/13 33/33/33
f 32/32/32 14/14/14 13/13/13
f 34/34/34 35/35/35 36/36/36
f 34/34/34 37/37/37 35/35/35
f 38/38/38 39/39/39 40/40/40
f 38/38/38 41/41/41 39/39/39
f 42/42/42 43/43/43 44/44/44
f 42/42/42 45/45/45 43/43/43
f 45/45/45 46/46/46 43/43/43
f 45/45/45 47/47/47 46/46/46
f 41/41/41 48/48/48 39/39/39
f 41/41/41 49/49/49 48/48/48
f 47/47/47 50/50/50 46/46/46
f 47/47/47 51/51/51 50/50/50
f 51/51/51 52/52/52 50/50/50
f 51/51/51 16/16/16 52/52/52
f 31/31/31 53/53/53 29/29/29
f 31/31/31 54/54/54 53/53/53
f 55/55/55 56/56/56 57/57/57
f 55/55/55 58/58/58 56/56/56
f 59/59/59 56/56/56 58/58/58
f 59/59/59 60/60/60 56/56/56
f 61/61/61 62/62/62 63/63/63
f 61/61/61 64/64/64 62/62/62
f 64/64/64 24/24/24 62/62/62
f 64/64/64 23/23/23 24/24/24
f 65/65/65 18/18/18 66/66/66
f 65/65/65 19/19/19 18/18/18
f 52/52/52 16/16/16 12/12/12

