mtllib boss_shp_debrisD_SD.mtl

v 0.598877 1.872070 0.000488
v 2.194580 3.103516 -1.078125
v 0.973145 3.706055 -0.535645
v 3.185791 1.623047 -1.779053
v -1.362061 -0.633057 2.447510
v 3.628174 -0.042969 -1.502441
v 2.261719 -2.261719 -1.417480
v 2.119629 -2.888672 -2.896729
v -0.185791 -4.424316 -1.519531
v 2.194580 3.103516 -1.078125
v 1.896484 3.359131 -1.961426
v 0.973145 3.706055 -0.535645
v 2.862549 1.783691 -3.096436
v 3.185791 1.623047 -1.779053
v 3.662109 -0.171387 -2.827148
v 3.628174 -0.042969 -1.502441
v -2.838867 -2.494141 2.538086
v -3.628174 -0.875000 3.096436
v -1.316162 -3.677002 1.235840
v -3.414307 -2.665283 1.984619
v -2.108154 -4.242188 0.197510
v -1.362061 -0.633057 2.447510
v -3.414307 -2.665283 1.984619
v -3.628174 -0.875000 3.096436
v -2.108154 -4.242188 0.197510
v -0.185791 -4.424316 -1.519531
v 0.408936 -3.862305 -0.355713
v 1.896484 3.359131 -1.961426
v 0.598877 1.872070 0.000488
v 0.973145 3.706055 -0.535645
v 2.862549 1.783691 -3.096436
v 3.662109 -0.171387 -2.827148
v 2.119629 -2.888672 -2.896729
v 3.662109 -0.171387 -2.827148

vt 0.522705 0.173035
vt 0.539093 0.170868
vt 0.535400 0.182404
vt 0.536591 0.155579
vt 0.496796 0.169037
vt 0.529022 0.141815
vt 0.508942 0.136353
vt 0.510620 0.124756
vt 0.488098 0.125488
vt 0.539093 0.170868
vt 0.546356 0.170349
vt 0.535400 0.182404
vt 0.546753 0.151642
vt 0.536591 0.155579
vt 0.535400 0.133881
vt 0.529022 0.141815
vt 0.477325 0.166321
vt 0.482086 0.181793
vt 0.479004 0.149597
vt 0.470764 0.167389
vt 0.469727 0.144806
vt 0.523346 0.175262
vt 0.547943 0.164124
vt 0.544128 0.179016
vt 0.541870 0.148071
vt 0.526337 0.131195
vt 0.490479 0.136322
vt 0.467926 0.170990
vt 0.490051 0.174286
vt 0.474609 0.181763
vt 0.471130 0.154755
vt 0.485321 0.145264
vt 0.501404 0.130280
vt 0.535400 0.133881

vn 0.547551 0.229250 0.804756
vn 0.531018 0.052675 0.845722
vn 0.465446 0.159482 0.870589
vn 0.575190 0.196776 0.794000
vn 0.524909 -0.182192 0.831431
vn 0.792773 -0.192197 0.578421
vn 0.740730 -0.521184 0.423893
vn 0.743898 -0.640260 0.191529
vn 0.460261 -0.859488 0.222349
vn 0.663138 0.748403 -0.011902
vn 0.707093 0.706300 -0.034058
vn 0.473702 0.875687 0.093691
vn 0.867806 0.473149 -0.151796
vn 0.882767 0.453560 -0.122500
vn 0.952177 0.296335 -0.074465
vn 0.966488 0.256713 -0.000122
vn -0.034424 -0.550238 0.834298
vn 0.091123 -0.284539 0.954324
vn 0.292851 -0.679637 0.672556
vn -0.339421 -0.722055 0.602852
vn 0.056640 -0.894706 0.443050
vn -0.549675 0.391718 -0.737844
vn -0.342592 0.523623 -0.780032
vn -0.288455 0.479984 -0.828498
vn -0.493702 0.531299 -0.688461
vn -0.620650 0.466724 -0.630049
vn 0.577293 -0.685635 0.443438
vn -0.816708 -0.046264 -0.575193
vn -0.812435 0.026367 -0.582456
vn -0.838056 0.011657 -0.545460
vn -0.738779 -0.215701 -0.638497
vn -0.722997 -0.021117 -0.690528
vn -0.671700 0.415837 -0.613105
vn 0.866732 -0.493819 0.070127

g polygon0
s 1
usemtl mat1
f 1/1/1 2/2/2 3/3/3
f 1/1/1 4/4/4 2/2/2
f 5/5/5 4/4/4 1/1/1
f 5/5/5 6/6/6 4/4/4
f 7/7/7 6/6/6 5/5/5
f 7/7/7 8/8/8 6/6/6
f 9/9/9 8/8/8 7/7/7
f 10/10/10 11/11/11 12/12/12
f 10/10/10 13/13/13 11/11/11
f 14/14/14 13/13/13 10/10/10
f 14/14/14 15/15/15 13/13/13
f 16/16/16 15/15/15 14/14/14
f 17/17/17 5/5/5 18/18/18
f 17/17/17 19/19/19 5/5/5
f 20/20/20 19/19/19 17/17/17
f 20/20/20 21/21/21 19/19/19
f 22/22/22 23/23/23 24/24/24
f 22/22/22 25/25/25 23/23/23
f 26/26/26 25/25/25 22/22/22
f 27/27/27 5/5/5 19/19/19
f 27/27/27 7/7/7 5/5/5
f 9/9/9 7/7/7 27/27/27
f 28/28/28 29/29/29 30/30/30
f 28/28/28 31/31/31 29/29/29
f 31/31/31 22/22/22 29/29/29
f 31/31/31 32/32/32 22/22/22
f 33/33/33 22/22/22 32/32/32
f 33/33/33 26/26/26 22/22/22
f 27/27/27 21/21/21 9/9/9
f 27/27/27 19/19/19 21/21/21
f 34/34/34 6/6/6 8/8/8
f 17/17/17 18/18/18 20/20/20

