mtllib boss_shp_debrisB_SD.mtl

v 4.958008 13.564453 8.372070
v -9.139648 10.374023 3.285156
v -4.180664 16.663086 5.480469
v -2.128906 2.016602 -2.090820
v 10.367188 4.641602 2.871094
v 10.816406 -4.862305 -6.932617
v 15.772461 1.929688 0.252930
v -9.681641 9.768555 4.414063
v 4.731445 13.010742 9.626953
v -4.789063 17.624023 6.769531
v -2.656250 0.888672 1.620117
v -11.594727 0.127930 -9.714844
v -8.595703 -4.840820 -14.182617
v 10.367188 4.641602 2.871094
v 10.716797 3.896484 4.301758
v 15.772461 1.929688 0.252930
v 4.731445 13.010742 9.626953
v 4.958008 13.564453 8.372070
v 10.630859 -5.287109 -6.504883
v 10.816406 -4.862305 -6.932617
v 15.772461 1.929688 0.252930
v 3.013672 -5.129883 -15.321289
v 2.856445 -6.729492 -15.642578
v 10.716797 3.896484 4.301758
v 10.630859 -5.287109 -6.504883
v 15.772461 1.929688 0.252930
v -4.180664 16.663086 5.480469
v -9.681641 9.768555 4.414063
v -4.789063 17.624023 6.769531
v -9.139648 10.374023 3.285156
v -4.789063 17.624023 6.769531
v -4.180664 16.663086 5.480469
v -7.673828 -3.357422 -14.090820
v 2.856445 -6.729492 -15.642578
v -8.595703 -4.840820 -14.182617
v 3.013672 -5.129883 -15.321289
v -11.594727 0.127930 -9.714844
v -10.062500 1.222656 -10.034180
v -8.595703 -4.840820 -14.182617
v -7.673828 -3.357422 -14.090820
v 3.013672 -5.129883 -15.321289
v -7.673828 -3.357422 -14.090820
v -10.062500 1.222656 -10.034180
v 2.856445 -6.729492 -15.642578

vt 0.580353 0.968903
vt 0.566986 0.944366
vt 0.582672 0.947540
vt 0.548309 0.961700
vt 0.562195 0.985107
vt 0.532684 0.989502
vt 0.553101 0.995148
vt 0.502930 0.973694
vt 0.494354 0.946716
vt 0.512756 0.961029
vt 0.478912 0.969177
vt 0.476105 0.997162
vt 0.461273 0.999817
vt 0.498718 0.969208
vt 0.497406 0.976410
vt 0.466827 0.966980
vt 0.564117 0.976166
vt 0.564117 0.969879
vt 0.419250 0.973602
vt 0.418030 0.966278
vt 0.466827 0.966980
vt 0.367706 0.967255
vt 0.367279 0.974731
vt 0.468140 0.946472
vt 0.442993 0.962921
vt 0.453857 0.945038
vt 0.619598 0.969482
vt 0.645050 0.976410
vt 0.619598 0.975342
vt 0.648224 0.969421
vt 0.619598 0.975342
vt 0.619598 0.969482
vt 0.765289 0.974609
vt 0.824341 0.981689
vt 0.765289 0.982269
vt 0.822693 0.974182
vt 0.736877 0.979736
vt 0.736542 0.972168
vt 0.765289 0.982269
vt 0.765289 0.974609
vt 0.515503 0.972321
vt 0.519135 0.951477
vt 0.531494 0.944824
vt 0.442902 0.986969

vn 0.209174 0.493730 -0.844083
vn 0.286798 0.545581 -0.787457
vn 0.323550 0.074097 -0.943305
vn 0.269599 0.745379 -0.609694
vn 0.123414 0.670233 -0.731818
vn 0.208257 0.811300 -0.546279
vn 0.964484 -0.211977 -0.157594
vn -0.386222 -0.434988 0.813399
vn -0.180549 -0.390456 0.902744
vn -0.322685 -0.081724 0.942971
vn -0.267999 -0.712936 0.647996
vn -0.539548 -0.697017 0.472287
vn -0.272761 -0.867050 0.416924
vn 0.718861 0.669850 0.185849
vn 0.723032 0.669138 0.171694
vn 0.536014 0.795354 0.283022
vn 0.648072 0.654969 0.388611
vn 0.643751 0.668959 0.371590
vn 0.742010 -0.590825 -0.316775
vn 0.710440 -0.628837 -0.315975
vn 0.858721 -0.497752 -0.121829
vn 0.756523 0.035400 -0.653008
vn 0.755936 0.056825 -0.652174
vn 0.050599 -0.679214 0.732194
vn -0.065611 -0.863932 0.499317
vn 0.964484 -0.211977 -0.157594
vn -0.566340 0.547175 -0.616327
vn -0.826351 0.541257 -0.155517
vn -0.540593 0.532048 -0.651678
vn -0.829112 0.546027 -0.120119
vn 0.408633 0.846380 -0.341555
vn 0.407099 0.813893 -0.414545
vn -0.102964 0.132077 -0.985877
vn -0.081175 0.196103 -0.977218
vn -0.104918 0.126219 -0.986438
vn -0.078552 0.203673 -0.975883
vn -0.542283 0.553696 -0.631941
vn -0.546208 0.576665 -0.607549
vn -0.523986 0.390929 -0.756712
vn -0.540579 0.382013 -0.749560
vn 0.224365 0.891233 -0.394164
vn 0.245421 0.837397 -0.488400
vn 0.458729 0.713605 -0.529467
vn -0.160826 -0.920891 0.355099

g polygon0
s 1
usemtl mat1
f 1/1/1 2/2/2 3/3/3
f 1/1/1 4/4/4 2/2/2
f 5/5/5 4/4/4 1/1/1
f 5/5/5 6/6/6 4/4/4
f 7/7/7 6/6/6 5/5/5
f 8/8/8 9/9/9 10/10/10
f 8/8/8 11/11/11 9/9/9
f 12/12/12 11/11/11 8/8/8
f 12/12/12 13/13/13 11/11/11
f 14/14/14 15/15/15 16/16/16
f 14/14/14 17/17/17 15/15/15
f 18/18/18 17/17/17 14/14/14
f 19/19/19 20/20/20 21/21/21
f 19/19/19 22/22/22 20/20/20
f 23/23/23 22/22/22 19/19/19
f 24/24/24 25/25/25 26/26/26
f 24/24/24 11/11/11 25/25/25
f 9/9/9 11/11/11 24/24/24
f 27/27/27 28/28/28 29/29/29
f 27/27/27 30/30/30 28/28/28
f 31/31/31 18/18/18 32/32/32
f 31/31/31 17/17/17 18/18/18
f 33/33/33 34/34/34 35/35/35
f 33/33/33 36/36/36 34/34/34
f 30/30/30 37/37/37 28/28/28
f 30/30/30 38/38/38 37/37/37
f 38/38/38 39/39/39 37/37/37
f 38/38/38 40/40/40 39/39/39
f 41/41/41 4/4/4 6/6/6
f 41/41/41 42/42/42 4/4/4
f 43/43/43 4/4/4 42/42/42
f 43/43/43 2/2/2 4/4/4
f 44/44/44 11/11/11 13/13/13
f 44/44/44 25/25/25 11/11/11

