mtllib boss_shp_debrisC_SD.mtl

v 1.175293 -3.652344 3.831055
v -8.689941 -1.909180 5.339844
v -6.245605 -4.770508 7.338867
v -9.279297 1.243652 5.709473
v 6.880371 1.778320 -2.249023
v -2.650879 4.208008 -1.644531
v 5.705078 2.009277 -4.944824
v -10.491211 0.259277 4.293945
v 6.930664 -1.600586 -1.590820
v 0.463379 -5.057129 2.322266
v 6.233887 0.333008 -3.197754
v -3.706543 3.152832 -2.692871
v 5.251953 1.265137 -4.900879
v 0.463379 -5.057129 2.322266
v -6.245605 -4.770508 7.338867
v -7.919922 -6.656738 6.793457
v 1.175293 -3.652344 3.831055
v 6.930664 -1.600586 -1.590820
v 7.406738 -0.794434 -1.096191
v -10.384277 -3.344727 4.845703
v -9.279297 1.243652 5.709473
v -10.491211 0.259277 4.293945
v -8.689941 -1.909180 5.339844
v -6.245605 -4.770508 7.338867
v -10.384277 -3.344727 4.845703
v -7.919922 -6.656738 6.793457
v -9.279297 1.243652 5.709473
v -3.706543 3.152832 -2.692871
v -10.491211 0.259277 4.293945
v -2.650879 4.208008 -1.644531
v 5.251953 1.265137 -4.900879
v 5.705078 2.009277 -4.944824
v 5.705078 2.009277 -4.944824
v 6.233887 0.333008 -3.197754
v 5.251953 1.265137 -4.900879
v 6.880371 1.778320 -2.249023
v 6.930664 -1.600586 -1.590820
v 7.406738 -0.794434 -1.096191
v 7.406738 -0.794434 -1.096191
v -7.919922 -6.656738 6.793457

vt 0.749451 0.506195
vt 0.693085 0.506195
vt 0.702576 0.487152
vt 0.683624 0.525269
vt 0.797333 0.545654
vt 0.733368 0.566833
vt 0.796387 0.564514
vt 0.804535 0.524689
vt 0.703979 0.546509
vt 0.739380 0.522186
vt 0.709625 0.557037
vt 0.765015 0.572235
vt 0.715027 0.569885
vt 0.750824 0.499573
vt 0.702576 0.487152
vt 0.697784 0.477325
vt 0.749451 0.506195
vt 0.803864 0.521820
vt 0.796326 0.525208
vt 0.685364 0.503204
vt 0.683624 0.525269
vt 0.672943 0.529083
vt 0.693085 0.506195
vt 0.702576 0.487152
vt 0.789673 0.511292
vt 0.774780 0.497894
vt 0.683624 0.525269
vt 0.721832 0.573120
vt 0.672943 0.529083
vt 0.733368 0.566833
vt 0.801270 0.573517
vt 0.796387 0.564514
vt 0.796387 0.564514
vt 0.807922 0.547333
vt 0.801270 0.573517
vt 0.797333 0.545654
vt 0.803864 0.521820
vt 0.796326 0.525208
vt 0.796326 0.525208
vt 0.697784 0.477325

vn 0.342281 0.473383 0.811636
vn 0.178410 0.171147 0.968957
vn 0.226808 0.680545 0.696719
vn 0.249814 0.313351 0.916190
vn 0.357126 0.788838 0.500196
vn 0.245059 0.841378 0.481694
vn 0.245538 0.969092 -0.023925
vn -0.280338 -0.384221 -0.879650
vn -0.313965 -0.591796 -0.742431
vn -0.317939 -0.382821 -0.867389
vn -0.288818 -0.779846 -0.555359
vn -0.253594 -0.795328 -0.550584
vn -0.272769 -0.901499 -0.336002
vn 0.488219 -0.731077 0.476622
vn 0.452528 -0.620318 0.640643
vn 0.462663 -0.599570 0.653038
vn 0.497084 -0.737386 0.457349
vn 0.631203 -0.649269 0.424301
vn 0.635139 -0.640449 0.431768
vn -0.453662 0.102231 0.885291
vn -0.606732 -0.003540 0.794898
vn -0.781723 0.071654 0.619495
vn -0.296022 0.020447 0.954962
vn -0.460707 0.181768 0.868740
vn -0.263727 -0.340812 -0.902383
vn -0.268981 -0.629026 -0.729367
vn -0.521125 0.839305 -0.154909
vn -0.365849 0.819040 -0.441960
vn -0.513313 0.845288 -0.148318
vn -0.305367 0.793722 -0.526076
vn -0.306083 0.206415 -0.929358
vn -0.330086 0.145694 -0.932639
vn 0.770834 -0.326791 -0.546829
vn 0.874083 -0.140259 -0.465087
vn 0.655693 -0.435786 -0.616570
vn 0.880832 -0.110409 -0.460374
vn 0.829607 -0.094790 -0.550243
vn 0.796036 -0.104250 -0.596203
vn 0.423293 0.441238 0.791286
vn -0.467157 0.163389 0.868947

g polygon0
s 1
usemtl mat1
f 1/1/1 2/2/2 3/3/3
f 1/1/1 4/4/4 2/2/2
f 5/5/5 4/4/4 1/1/1
f 5/5/5 6/6/6 4/4/4
f 7/7/7 6/6/6 5/5/5
f 8/8/8 9/9/9 10/10/10
f 8/8/8 11/11/11 9/9/9
f 12/12/12 11/11/11 8/8/8
f 12/12/12 13/13/13 11/11/11
f 14/14/14 15/15/15 16/16/16
f 14/14/14 17/17/17 15/15/15
f 18/18/18 17/17/17 14/14/14
f 18/18/18 19/19/19 17/17/17
f 20/20/20 21/21/21 22/22/22
f 20/20/20 23/23/23 21/21/21
f 24/24/24 23/23/23 20/20/20
f 25/25/25 10/10/10 26/26/26
f 25/25/25 8/8/8 10/10/10
f 27/27/27 28/28/28 29/29/29
f 27/27/27 30/30/30 28/28/28
f 31/31/31 30/30/30 32/32/32
f 31/31/31 28/28/28 30/30/30
f 33/33/33 34/34/34 35/35/35
f 33/33/33 36/36/36 34/34/34
f 37/37/37 36/36/36 38/38/38
f 37/37/37 34/34/34 36/36/36
f 39/39/39 5/5/5 1/1/1
f 40/40/40 24/24/24 20/20/20

