mtllib brkpartsB_L_brk1.mtl

v -34.396484 -1.060547 38.527344
v -22.710938 -17.009766 48.550781
v -31.021484 -5.828125 48.103516
v -18.759766 -22.099609 39.367188
v -34.451172 -0.681641 25.908203
v -17.931641 -22.910156 26.794922
v -28.830078 -6.900391 -19.857422
v -20.507813 -18.097656 -19.412109
v -23.316406 -9.181641 -44.669922
v -20.148438 -13.445313 -44.500000
v -20.925781 -6.164063 -54.041016
v -16.212891 -12.505859 -53.787109
v -6.056641 -15.138672 -19.904297
v -16.212891 -12.505859 -53.787109
v -12.332031 -9.630859 -54.037109
v -9.935547 -18.011719 -19.654297
v 0.404297 -19.779297 27.031250
v -3.476563 -22.654297 27.281250
v -3.839844 -20.824219 42.675781
v -17.931641 -22.910156 26.794922
v -18.759766 -22.099609 39.367188
v 0.041016 -17.951172 42.425781
v -18.958984 8.611328 52.882813
v -5.593750 -9.371094 53.601563
v -25.107422 15.888672 41.076172
v 0.404297 -19.779297 27.031250
v -26.166016 15.970703 25.603516
v -6.056641 -15.138672 -19.904297
v -21.802734 6.048828 -20.750000
v -17.046875 -3.289063 -54.291016
v -28.988281 13.015625 41.326172
v -31.021484 -5.828125 48.103516
v -22.837891 5.738281 53.132813
v -34.396484 -1.060547 38.527344
v -30.044922 13.097656 25.853516
v -34.451172 -0.681641 25.908203
v -25.681641 3.175781 -20.500000
v -28.830078 -6.900391 -19.857422
v -23.316406 -9.181641 -44.669922
v -26.166016 15.970703 25.603516
v -21.802734 6.048828 -20.750000
v -25.107422 15.888672 41.076172
v -18.958984 8.611328 52.882813
v 9.355469 8.781250 41.843750
v 24.691406 9.050781 46.851563
v 24.537109 10.371094 48.095703
v 9.509766 7.462891 40.599609
v -16.273438 -8.212891 35.191406
v -16.119141 -9.533203 33.947266
v 9.509766 7.462891 40.599609
v 24.662109 9.576172 27.466797
v 24.691406 9.050781 46.851563
v 9.480469 7.986328 21.214844
v -16.119141 -9.533203 33.947266
v -16.148438 -9.009766 14.562500
v 8.679688 14.634766 42.003906
v 24.537109 10.371094 48.095703
v 23.861328 16.224609 48.255859
v 9.355469 8.781250 41.843750
v -16.949219 -2.361328 35.351563
v -16.273438 -8.212891 35.191406
v -22.837891 5.738281 53.132813
v -5.593750 -9.371094 53.601563
v -18.958984 8.611328 52.882813
v -9.472656 -12.246094 53.851563
v -31.021484 -5.828125 48.103516
v -22.710938 -17.009766 48.550781
v 8.679688 14.634766 42.003906
v -17.107422 -0.974609 34.181641
v -16.949219 -2.361328 35.351563
v 8.521484 16.019531 40.832031
v 23.703125 17.609375 47.083984
v 9.322266 9.371094 20.044922
v -16.148438 -9.009766 14.562500
v -16.306641 -7.625000 13.392578
v 9.480469 7.986328 21.214844
v 24.662109 9.576172 27.466797
v 0.041016 -17.951172 42.425781
v -9.472656 -12.246094 53.851563
v -5.593750 -9.371094 53.601563
v 23.826172 16.814453 26.455078
v 8.490234 16.542969 21.447266
v 23.671875 18.132813 27.699219
v 8.644531 15.224609 20.203125
v 23.671875 18.132813 27.699219
v 8.521484 16.019531 40.832031
v 23.703125 17.609375 47.083984
v 8.490234 16.542969 21.447266
v 24.503906 10.960938 26.296875
v 8.644531 15.224609 20.203125
v 23.826172 16.814453 26.455078
v 9.322266 9.371094 20.044922
v -17.138672 -0.451172 14.796875
v -16.982422 -1.771484 13.552734
v -17.107422 -0.974609 34.181641
v -17.138672 -0.451172 14.796875
v -16.982422 -1.771484 13.552734
v -16.306641 -7.625000 13.392578
v -20.507813 -18.097656 -19.412109
v -17.046875 -3.289063 -54.291016
v -16.212891 -12.505859 -53.787109
v -20.925781 -6.164063 -54.041016
v -12.332031 -9.630859 -54.037109
v -22.710938 -17.009766 48.550781
v -20.148438 -13.445313 -44.500000
v -17.046875 -3.289063 -54.291016
v -20.925781 -6.164063 -54.041016
v 23.861328 16.224609 48.255859
v 24.503906 10.960938 26.296875
v -12.332031 -9.630859 -54.037109

vt 0.926453 0.205048
vt 0.954956 0.152802
vt 0.954651 0.189209
vt 0.926453 0.136597
vt 0.887604 0.206696
vt 0.888214 0.134460
vt 0.749237 0.191254
vt 0.749542 0.148193
vt 0.689941 0.179901
vt 0.690125 0.158752
vt 0.646973 0.186829
vt 0.647064 0.151276
vt 0.741272 0.113190
vt 0.647064 0.151276
vt 0.636444 0.145050
vt 0.749023 0.124512
vt 0.882843 0.090424
vt 0.886719 0.104584
vt 0.945007 0.106842
vt 0.888214 0.134460
vt 0.926453 0.136597
vt 0.625031 0.227570
vt 0.586975 0.322296
vt 0.586975 0.256531
vt 0.625031 0.351257
vt 0.676147 0.224060
vt 0.676147 0.354767
vt 0.830658 0.249512
vt 0.830658 0.329315
vt 0.945068 0.308441
vt 0.944061 0.235016
vt 0.954651 0.189209
vt 0.983154 0.208771
vt 0.926453 0.205048
vt 0.885651 0.236572
vt 0.887604 0.206696
vt 0.748535 0.214874
vt 0.749237 0.191254
vt 0.689941 0.179901
vt 0.881622 0.250458
vt 0.740753 0.226074
vt 0.945953 0.248108
vt 0.999298 0.210724
vt 0.935852 0.436768
vt 0.998962 0.433899
vt 0.998962 0.436768
vt 0.935852 0.433899
vt 0.872711 0.436768
vt 0.872711 0.433899
vt 0.935852 0.433899
vt 0.998962 0.390350
vt 0.998962 0.433899
vt 0.935852 0.390350
vt 0.872711 0.433899
vt 0.872711 0.390350
vt 0.935852 0.449188
vt 0.998962 0.436768
vt 0.998962 0.449188
vt 0.935852 0.436768
vt 0.872711 0.449188
vt 0.872711 0.436768
vt 0.983154 0.208771
vt 0.999298 0.131744
vt 0.999298 0.210724
vt 0.983154 0.133667
vt 0.954651 0.189209
vt 0.954956 0.152802
vt 0.935852 0.449188
vt 0.872711 0.452057
vt 0.872711 0.449188
vt 0.935852 0.452057
vt 0.998962 0.452057
vt 0.935852 0.387482
vt 0.872711 0.390350
vt 0.872711 0.387482
vt 0.935852 0.390350
vt 0.998962 0.390350
vt 0.947113 0.093597
vt 0.983154 0.133667
vt 0.999298 0.131744
vt 0.998962 0.375061
vt 0.935852 0.372192
vt 0.998962 0.372192
vt 0.935852 0.375061
vt 0.998962 0.372192
vt 0.935852 0.328613
vt 0.998962 0.328613
vt 0.935852 0.372192
vt 0.998962 0.387482
vt 0.935852 0.375061
vt 0.998962 0.375061
vt 0.935852 0.387482
vt 0.872711 0.372192
vt 0.872711 0.375061
vt 0.872742 0.328613
vt 0.872711 0.372192
vt 0.872711 0.375061
vt 0.872711 0.387482
vt 0.749542 0.148193
vt 0.636444 0.193024
vt 0.647064 0.151276
vt 0.646973 0.186829
vt 0.636444 0.145050
vt 0.954956 0.152802
vt 0.690125 0.158752
vt 0.636444 0.193024
vt 0.646973 0.186829
vt 0.998962 0.449188
vt 0.998962 0.387482
vt 0.945068 0.265900

vn -0.802255 -0.596808 -0.014404
vn -0.802255 -0.596808 -0.014404
vn -0.802255 -0.596808 -0.014404
vn -0.802255 -0.596808 -0.014404
vn -0.802215 -0.596824 -0.015870
vn -0.802215 -0.596824 -0.015870
vn -0.799725 -0.596910 -0.064330
vn -0.799725 -0.596910 -0.064330
vn -0.773139 -0.584417 -0.246401
vn -0.773139 -0.584417 -0.246401
vn -0.738515 -0.563652 -0.369990
vn -0.738515 -0.563652 -0.369990
vn 0.575504 -0.794073 -0.195558
vn 0.409425 -0.885867 -0.218201
vn 0.569232 -0.788783 -0.231941
vn 0.304080 -0.936471 -0.174806
vn 0.593921 -0.804122 -0.025390
vn 0.328117 -0.944619 -0.005859
vn 0.303410 -0.861829 0.406439
vn 0.030091 -0.999532 -0.005554
vn 0.046327 -0.946196 0.320261
vn 0.802541 0.594353 -0.051696
vn 0.802541 0.594353 -0.051696
vn 0.802541 0.594353 -0.051696
vn 0.802541 0.594353 -0.051696
vn 0.802541 0.594353 -0.051696
vn 0.802541 0.594353 -0.051696
vn 0.802541 0.594353 -0.051696
vn 0.802541 0.594353 -0.051696
vn 0.802541 0.594353 -0.051696
vn -0.741880 0.575499 0.344115
vn -0.819899 0.270024 0.504830
vn -0.613099 0.488832 0.620607
vn -0.925709 0.293697 0.238339
vn -0.804402 0.589553 -0.073244
vn -0.950436 0.302550 -0.071655
vn -0.801190 0.550708 -0.234126
vn -0.939855 0.281242 -0.193842
vn -0.961182 0.195984 -0.194214
vn -0.596509 0.797624 -0.089296
vn -0.585705 0.768386 -0.257939
vn -0.542126 0.762651 0.352791
vn -0.437795 0.645492 0.625840
vn -0.045471 -0.687984 0.724300
vn -0.215821 -0.682987 0.697818
vn -0.215821 -0.682987 0.697818
vn 0.066282 -0.680274 0.729955
vn 0.244142 -0.649844 0.719790
vn 0.244142 -0.649844 0.719790
vn 0.305296 -0.951898 -0.026184
vn 0.115113 -0.992986 -0.026978
vn 0.115113 -0.992986 -0.026978
vn 0.390260 -0.920353 -0.025452
vn 0.556703 -0.830385 -0.023315
vn 0.556703 -0.830385 -0.023315
vn -0.310677 -0.061708 0.948510
vn -0.373782 -0.068360 0.924994
vn -0.373782 -0.068360 0.924994
vn -0.287113 -0.059205 0.956065
vn -0.218572 -0.051759 0.974447
vn -0.218572 -0.051759 0.974447
vn -0.127809 -0.055482 0.990246
vn 0.022460 0.056517 0.998149
vn 0.022460 0.056517 0.998149
vn -0.127809 -0.055482 0.990246
vn -0.305354 -0.189695 0.933153
vn -0.305354 -0.189695 0.933153
vn -0.441215 0.549306 0.709642
vn -0.519170 0.516302 0.681098
vn -0.519170 0.516302 0.681098
vn -0.443650 0.548382 0.708838
vn -0.361875 0.577267 0.731990
vn 0.443650 -0.548382 -0.708838
vn 0.519170 -0.516302 -0.681098
vn 0.519170 -0.516302 -0.681098
vn 0.441215 -0.549306 -0.709642
vn 0.361875 -0.577267 -0.731990
vn 0.559324 -0.719357 0.411925
vn 0.253601 -0.722167 0.643554
vn 0.466978 -0.571898 0.674436
vn 0.215821 0.682987 -0.697818
vn 0.045471 0.687984 -0.724300
vn 0.215821 0.682987 -0.697818
vn -0.066282 0.680274 -0.729955
vn -0.115113 0.992986 0.026978
vn -0.305296 0.951898 0.026184
vn -0.115113 0.992986 0.026978
vn -0.390260 0.920353 0.025452
vn 0.373782 0.068360 -0.924994
vn 0.310677 0.061708 -0.948510
vn 0.373782 0.068360 -0.924994
vn 0.287113 0.059205 -0.956065
vn -0.244142 0.649844 -0.719790
vn -0.244142 0.649844 -0.719790
vn -0.556703 0.830385 0.023315
vn -0.556703 0.830385 0.023315
vn 0.218572 0.051759 -0.974447
vn 0.218572 0.051759 -0.974447
vn 0.004639 -0.989693 -0.143129
vn -0.022399 -0.056517 -0.998150
vn -0.022399 -0.056517 -0.998150
vn -0.022399 -0.056517 -0.998150
vn -0.022399 -0.056517 -0.998150
vn 0.100218 -0.851307 0.515008
vn -0.083006 -0.985634 -0.147091
vn -0.581050 0.759027 -0.293699
vn -0.720663 0.634723 -0.278878
vn -0.361875 0.577267 0.731990
vn 0.361875 -0.577267 -0.731990
vn 0.802541 0.594353 -0.051696

g polygon0
s 1
usemtl mat1
f 1/1/1 2/2/2 3/3/3
f 1/1/1 4/4/4 2/2/2
f 5/5/5 4/4/4 1/1/1
f 5/5/5 6/6/6 4/4/4
f 7/7/7 6/6/6 5/5/5
f 7/7/7 8/8/8 6/6/6
f 9/9/9 8/8/8 7/7/7
f 9/9/9 10/10/10 8/8/8
f 11/11/11 10/10/10 9/9/9
f 11/11/11 12/12/12 10/10/10
f 13/13/13 14/14/14 15/15/15
f 13/13/13 16/16/16 14/14/14
f 17/17/17 16/16/16 13/13/13
f 17/17/17 18/18/18 16/16/16
f 19/19/19 18/18/18 17/17/17
f 19/19/19 20/20/20 18/18/18
f 21/21/21 20/20/20 19/19/19
f 22/22/22 23/23/23 24/24/24
f 22/22/22 25/25/25 23/23/23
f 26/26/26 25/25/25 22/22/22
f 26/26/26 27/27/27 25/25/25
f 28/28/28 27/27/27 26/26/26
f 28/28/28 29/29/29 27/27/27
f 30/30/30 29/29/29 28/28/28
f 31/31/31 32/32/32 33/33/33
f 31/31/31 34/34/34 32/32/32
f 35/35/35 34/34/34 31/31/31
f 35/35/35 36/36/36 34/34/34
f 37/37/37 36/36/36 35/35/35
f 37/37/37 38/38/38 36/36/36
f 39/39/39 38/38/38 37/37/37
f 35/35/35 40/40/40 41/41/41
f 35/35/35 42/42/42 40/40/40
f 31/31/31 42/42/42 35/35/35
f 31/31/31 43/43/43 42/42/42
f 33/33/33 43/43/43 31/31/31
f 44/44/44 45/45/45 46/46/46
f 44/44/44 47/47/47 45/45/45
f 48/48/48 47/47/47 44/44/44
f 48/48/48 49/49/49 47/47/47
f 50/50/50 51/51/51 52/52/52
f 50/50/50 53/53/53 51/51/51
f 54/54/54 53/53/53 50/50/50
f 54/54/54 55/55/55 53/53/53
f 56/56/56 57/57/57 58/58/58
f 56/56/56 59/59/59 57/57/57
f 60/60/60 59/59/59 56/56/56
f 60/60/60 61/61/61 59/59/59
f 62/62/62 63/63/63 64/64/64
f 62/62/62 65/65/65 63/63/63
f 66/66/66 65/65/65 62/62/62
f 66/66/66 67/67/67 65/65/65
f 68/68/68 69/69/69 70/70/70
f 68/68/68 71/71/71 69/69/69
f 72/72/72 71/71/71 68/68/68
f 73/73/73 74/74/74 75/75/75
f 73/73/73 76/76/76 74/74/74
f 77/77/77 76/76/76 73/73/73
f 78/78/78 19/19/19 17/17/17
f 78/78/78 79/79/79 19/19/19
f 80/80/80 79/79/79 78/78/78
f 81/81/81 82/82/82 83/83/83
f 81/81/81 84/84/84 82/82/82
f 85/85/85 86/86/86 87/87/87
f 85/85/85 88/88/88 86/86/86
f 89/89/89 90/90/90 91/91/91
f 89/89/89 92/92/92 90/90/90
f 93/93/93 84/84/84 94/94/94
f 93/93/93 82/82/82 84/84/84
f 95/95/95 88/88/88 96/96/96
f 95/95/95 86/86/86 88/88/88
f 97/97/97 92/92/92 98/98/98
f 97/97/97 90/90/90 92/92/92
f 20/20/20 16/16/16 18/18/18
f 20/20/20 99/99/99 16/16/16
f 100/100/100 101/101/101 102/102/102
f 100/100/100 103/103/103 101/101/101
f 21/21/21 79/79/79 104/104/104
f 21/21/21 19/19/19 79/79/79
f 105/105/105 16/16/16 99/99/99
f 105/105/105 14/14/14 16/16/16
f 41/41/41 37/37/37 35/35/35
f 41/41/41 106/106/106 37/37/37
f 37/37/37 107/107/107 39/39/39
f 37/37/37 106/106/106 107/107/107
f 108/108/108 72/72/72 68/68/68
f 109/109/109 77/77/77 73/73/73
f 110/110/110 30/30/30 28/28/28

