mtllib brkpartsA_L_brk1.mtl

v 2.148926 2.407227 7.641602
v -5.719238 -0.919922 0.794434
v -6.160645 -0.944336 4.487305
v 0.871094 1.256836 -8.840820
v -6.160645 -0.944336 4.487305
v -4.735840 -4.480957 0.887695
v -5.177246 -4.505859 4.581055
v -5.719238 -0.919922 0.794434
v -5.177246 -4.505859 4.581055
v 2.167480 -3.436523 -8.717285
v 3.631836 -2.962402 7.782715
v -4.735840 -4.480957 0.887695
v -6.160645 -0.944336 4.487305
v 3.631836 -2.962402 7.782715
v 2.148926 2.407227 7.641602
v -5.177246 -4.505859 4.581055
v -5.719238 -0.919922 0.794434
v 2.167480 -3.436523 -8.717285
v -4.735840 -4.480957 0.887695
v 0.871094 1.256836 -8.840820
v 0.871094 1.256836 -8.840820
v 2.148926 2.407227 7.641602
v 2.167480 -3.436523 -8.717285
v 3.631836 -2.962402 7.782715
v 2.167480 -3.436523 -8.717285
v 2.148926 2.407227 7.641602

vt 0.537628 0.001678
vt 0.540649 0.039581
vt 0.520111 0.029358
vt 0.575439 0.037292
vt 0.520386 0.039459
vt 0.540649 0.052246
vt 0.520386 0.052338
vt 0.540649 0.039581
vt 0.520111 0.062469
vt 0.575439 0.054504
vt 0.537628 0.090118
vt 0.540649 0.052246
vt 0.001312 0.088013
vt 0.152374 0.001038
vt 0.152374 0.102356
vt 0.001312 0.018066
vt 0.540649 0.039581
vt 0.575439 0.054504
vt 0.540649 0.052246
vt 0.575439 0.037292
vt 0.521881 0.039703
vt 0.576019 0.038422
vt 0.521484 0.053558
vt 0.575592 0.054291
vt 0.521484 0.053558
vt 0.576019 0.038422

vn -0.357763 0.933294 -0.031110
vn -0.357763 0.933294 -0.031110
vn -0.357763 0.933294 -0.031110
vn -0.357763 0.933294 -0.031110
vn -0.957459 -0.266833 -0.109872
vn -0.957459 -0.266833 -0.109872
vn -0.957459 -0.266833 -0.109872
vn -0.957459 -0.266833 -0.109872
vn 0.171980 -0.984976 0.015635
vn 0.171980 -0.984976 0.015635
vn 0.171980 -0.984976 0.015635
vn 0.171980 -0.984976 0.015635
vn -0.329698 -0.062800 0.941995
vn -0.329698 -0.062800 0.941995
vn -0.329698 -0.062800 0.941995
vn -0.329698 -0.062800 0.941995
vn -0.781441 -0.234432 -0.578266
vn -0.781441 -0.234432 -0.578266
vn -0.781441 -0.234432 -0.578266
vn -0.781441 -0.234432 -0.578266
vn 0.958996 0.267261 -0.094327
vn 0.958996 0.267261 -0.094327
vn 0.958996 0.267261 -0.094327
vn 0.958996 0.267261 -0.094327
vn 0.958996 0.267261 -0.094327
vn 0.958996 0.267261 -0.094327

g polygon0
s 1
usemtl mat1
f 1/1/1 2/2/2 3/3/3
f 1/1/1 4/4/4 2/2/2
f 5/5/5 6/6/6 7/7/7
f 5/5/5 8/8/8 6/6/6
f 9/9/9 10/10/10 11/11/11
f 9/9/9 12/12/12 10/10/10
f 13/13/13 14/14/14 15/15/15
f 13/13/13 16/16/16 14/14/14
f 17/17/17 18/18/18 19/19/19
f 17/17/17 20/20/20 18/18/18
f 21/21/21 22/22/22 23/23/23
f 24/24/24 25/25/25 26/26/26

